<svg enable-background="new 0 0 166.1 166.2" viewBox="0 0 166.1 166.2" xmlns="http://www.w3.org/2000/svg"><path clip-rule="evenodd" d="m83.1 0c-7.4 18.1-11.9 30-20.1 47.6 5 5.4 11.2 11.6 21.3 18.6-10.8-4.5-18.2-8.9-23.7-13.6-10.6 22-27.1 53.4-60.6 113.6 26.3-15.2 46.8-24.6 65.8-28.2-.8-3.5-1.3-7.3-1.3-11.3v-.8c.4-16.9 9.2-29.8 19.6-29s18.5 15.3 18.1 32.2c-.1 3.2-.4 6.2-1.1 9.1 18.8 3.7 39 13 65 28-5.1-9.4-9.7-17.9-14.1-26-6.9-5.3-14.1-12.3-28.7-19.8 10.1 2.6 17.3 5.6 22.9 9-44.3-82.7-47.9-93.7-63.1-129.4z" fill="#1793d1" fill-rule="evenodd"/></svg>