<svg enable-background="new 0 0 484.8 793.7" viewBox="0 0 484.8 793.7" xmlns="http://www.w3.org/2000/svg"><path clip-rule="evenodd" d="m258.5 787.8c-.2.3-191.2-286.7-211-316.3-53.6-80.4-28-154.2 0-225.2l99.2-251.8 79.2 170.8c16.8-5.8 48.3-5.8 65.1 0l79.2-170.8 99.2 251.9c28 71 53.6 144.8 0 225.2z" fill="#161413" fill-rule="evenodd" transform="translate(-16.0596 5.77734)"/><path d="m258.5 787.8c-.2.3-191.2-286.7-211-316.3-53.6-80.4-28-154.2 0-225.2l99.2-251.8 79.2 170.8c16.8-5.8 48.3-5.8 65.1 0l79.2-170.8 99.2 251.9c28 71 53.6 144.8 0 225.2z" fill="none" stroke="#161413" stroke-width=".216" transform="translate(-16.0596 5.77734)"/><path clip-rule="evenodd" d="m133.7 62.4c41.3 46.6 56.1 101.3 33.1 121.7s-75.5-.9-116.8-47.5c-41.3-46.6-56.1-101.3-33.1-121.7 23.1-20.4 75.5 1 116.8 47.5z" fill="#fff" fill-rule="evenodd" transform="translate(30.2207 307.813)"/><path d="m133.7 62.4c41.3 46.6 56.1 101.3 33.1 121.7s-75.5-.9-116.8-47.5c-41.3-46.6-56.1-101.3-33.1-121.7 23.1-20.4 75.5 1 116.8 47.5z" fill="none" stroke="#161413" stroke-width=".216" transform="translate(30.2207 307.813)"/><path clip-rule="evenodd" d="m79.7 4.8 51.2 88.8c7.9 13.8-13.2 25-20.7 12.1l-44-76.2-44 76.2c-7.6 13.1-28.4.9-20.8-12.2l51.5-88.8c5.9-10.2 20.9-10 26.8.1z" fill="#fff" fill-rule="evenodd" transform="translate(176.173 542.182)"/><path d="m79.7 4.8 51.2 88.8c7.9 13.8-13.2 25-20.7 12.1l-44-76.2-44 76.2c-7.6 13.1-28.4.9-20.8-12.2l51.5-88.8c5.9-10.2 20.9-10 26.8.1z" fill="none" stroke="#161413" stroke-width=".216" transform="translate(176.173 542.182)"/><g transform="translate(270.873 307.813)"><path clip-rule="evenodd" d="m50 62.4c-41.3 46.6-56.1 101.3-33.1 121.7s75.5-.9 116.8-47.5 56.1-101.3 33.1-121.7c-23.1-20.4-75.5 1-116.8 47.5z" fill="#fff" fill-rule="evenodd"/><path d="m50 62.4c-41.3 46.6-56.1 101.3-33.1 121.7s75.5-.9 116.8-47.5 56.1-101.3 33.1-121.7c-23.1-20.4-75.5 1-116.8 47.5z" fill="none" stroke="#161413" stroke-width=".216"/></g></svg>