<svg viewBox="0 0 108.66 32.11" xmlns="http://www.w3.org/2000/svg"><path d="m92.2 0h-75.74a16.26 16.26 0 0 0 -16.46 16.06 16.26 16.26 0 0 0 16.46 16.05h75.74a16.26 16.26 0 0 0 16.46-16 16.26 16.26 0 0 0 -16.46-16.11z" fill="#ccc"/><path d="m91.72.57h-74.78c-8.94 0-16.26 6.94-16.26 15.49s7.32 15.48 16.26 15.48h74.78c9 0 16.26-6.93 16.26-15.48s-7.28-15.49-16.26-15.49z" fill="#d8d8d8"/><path d="m92.25 0h-73.84c-8.86 0-16 6.74-16 15.06s7.14 15.06 16 15.06h73.84c8.86 0 16-6.74 16-15.06s-7.14-15.06-16-15.06z" fill="#eee"/><path d="m45.22 9.2h-4.43a.61.61 0 0 0 -.61.52l-1.8 11.37a.37.37 0 0 0 .31.42h2.18a.62.62 0 0 0 .61-.52l.52-3.06a.62.62 0 0 1 .61-.52h1.39c2.92 0 4.61-1.42 5.05-4.22a3.42 3.42 0 0 0 -.56-2.86 4.12 4.12 0 0 0 -3.27-1.13zm.51 4.15c-.24 1.59-1.45 1.59-2.63 1.59h-.67l.47-3a.37.37 0 0 1 .37-.31h.3c.8 0 1.56 0 2 .46a1.47 1.47 0 0 1 .16 1.26zm12.75 0h-2.12a.38.38 0 0 0 -.37.31l-.09.6-.15-.26a3 3 0 0 0 -2.51-.89 4.88 4.88 0 0 0 -4.74 4.27 4 4 0 0 0 .79 3.26 3.31 3.31 0 0 0 2.71 1.08 4.06 4.06 0 0 0 2.94-1.22l-.1.59a.37.37 0 0 0 .31.42h2a.62.62 0 0 0 .55-.51l1.15-7.27a.39.39 0 0 0 -.31-.43zm-3 4.13a2.36 2.36 0 0 1 -2.4 2 1.79 1.79 0 0 1 -1.42-.57 1.81 1.81 0 0 1 -.34-1.49 2.39 2.39 0 0 1 2.39-2 1.77 1.77 0 0 1 1.41.58 1.82 1.82 0 0 1 .4 1.43zm14.31-4.18h-2.13a.61.61 0 0 0 -.51.27l-2.94 4.34-1.21-4.17a.62.62 0 0 0 -.59-.44h-2.1a.36.36 0 0 0 -.37.37.25.25 0 0 0 0 .12l2.35 6.9-2.21 3.12a.36.36 0 0 0 .09.51.31.31 0 0 0 .21.07h2.13a.64.64 0 0 0 .51-.26l7.1-10.25a.38.38 0 0 0 -.09-.51.36.36 0 0 0 -.22-.07z" fill="#253b80"/><path d="m76.86 9.2h-4.43a.61.61 0 0 0 -.61.52l-1.82 11.37a.37.37 0 0 0 .31.42h2.33a.43.43 0 0 0 .43-.37l.51-3.22a.61.61 0 0 1 .61-.52h1.4c2.92 0 4.61-1.42 5-4.22a3.38 3.38 0 0 0 -.57-2.86 4.1 4.1 0 0 0 -3.16-1.12zm.51 4.15c-.24 1.59-1.45 1.59-2.63 1.59h-.67l.47-3a.37.37 0 0 1 .36-.31h.31c.8 0 1.56 0 2 .46a1.47 1.47 0 0 1 .16 1.26zm12.75 0h-2.12a.38.38 0 0 0 -.37.31l-.09.6-.15-.26a3 3 0 0 0 -2.51-.89 4.88 4.88 0 0 0 -4.74 4.27 4 4 0 0 0 .79 3.26 3.31 3.31 0 0 0 2.68 1.09 4.06 4.06 0 0 0 2.94-1.22l-.1.59a.37.37 0 0 0 .31.42h2a.62.62 0 0 0 .61-.52l1.15-7.27a.38.38 0 0 0 -.31-.43zm-3 4.13a2.36 2.36 0 0 1 -2.4 2 1.65 1.65 0 0 1 -1.72-2.08 2.38 2.38 0 0 1 2.38-2 1.78 1.78 0 0 1 1.42.58 1.82 1.82 0 0 1 .36 1.45zm5.46-7.92-1.78 11.53a.37.37 0 0 0 .31.42h1.89a.62.62 0 0 0 .61-.52l1.79-11.37a.36.36 0 0 0 -.3-.42h-2.1a.38.38 0 0 0 -.38.31z" fill="#179bd7"/><path d="m20 23.73.34-2.16h-4.4l2.51-15.9a.2.2 0 0 1 .2-.18h6.08c2 0 3.42.42 4.15 1.25a2.92 2.92 0 0 1 .66 1.26 4.43 4.43 0 0 1 0 1.71v.49l.34.19a2.54 2.54 0 0 1 .69.53 2.47 2.47 0 0 1 .56 1.26 5.48 5.48 0 0 1 -.08 1.82 6.55 6.55 0 0 1 -.75 2.07 4.16 4.16 0 0 1 -1.18 1.29 4.69 4.69 0 0 1 -1.6.72 7.56 7.56 0 0 1 -2 .23h-.47a1.44 1.44 0 0 0 -.93.34 1.41 1.41 0 0 0 -.48.86v.2l-.6 3.8v.13a.15.15 0 0 1 0 .09h-.06z" fill="#253b80"/><path d="m30.2 9.79-.06.36c-.81 4.12-3.55 5.54-7.06 5.54h-1.78a.87.87 0 0 0 -.86.74l-.91 5.79-.26 1.64a.46.46 0 0 0 .38.53h3.24a.76.76 0 0 0 .75-.64v-.16l.6-3.78v-.21a.76.76 0 0 1 .76-.64h.47c3.07 0 5.47-1.25 6.17-4.85a4.16 4.16 0 0 0 -.63-3.65 3.16 3.16 0 0 0 -.81-.67z" fill="#179bd7"/><path d="m29.36 9.46a7.31 7.31 0 0 0 -.78-.18 10.36 10.36 0 0 0 -1.58-.11h-4.76a.75.75 0 0 0 -.75.64l-1 6.43v.19a.87.87 0 0 1 .86-.74h1.78c3.51 0 6.25-1.42 7.06-5.54l.06-.36a4.84 4.84 0 0 0 -.66-.28z" fill="#222d65"/><path d="m21.49 9.81a.75.75 0 0 1 .75-.64h4.76a9.63 9.63 0 0 1 1.57.12 6.09 6.09 0 0 1 1 .22 5 5 0 0 1 .66.28 3.87 3.87 0 0 0 -.82-3.49c-.91-1-2.55-1.48-4.65-1.48h-6.11a.87.87 0 0 0 -.86.73l-2.53 16.07a.51.51 0 0 0 .43.59h3.84l.94-6z" fill="#253b80"/></svg>